# xmcd
#
# Track frame offsets:
#	150
#	11907
#	25650
#	35550
#	45925
#	59050
#	73835
#	90912
#	104797
#
# Disc length: 1537 seconds
#
# Revision: 0
# Processed by: cddbd v1.5.1PL0 Copyright (c) Steve Scherf et al.
# Submitted via: dBpowerAMP V4.0
#
DISCID=7605ff09
DTITLE=Various Artist - Duets Of The 70's
DYEAR=1970
DGENRE=Country
TTITLE0=Glen Campbell, Bobbie Gentry - All I Have To Do Is Dream
TTITLE1=Loretta Lynn, Conway Twitty - Feelin's
TTITLE2=Jim Reeves, Deborah Allen - Oh, How I Miss You Tonight
TTITLE3=Jacky Ward, Reba McEntire - I'd Really Love To See You Tonight
TTITLE4=Bill Anderson, Mary Lou Turner - Sometimes
TTITLE5=Ann Murray, Glen Campbell - I Say A Little Prayer/By The Time I Get To Phoenix
TTITLE6=Buck Owens, Susan Raye - The Great White Hourse
TTITLE7=Jim Ed Brown, Helen Cornelius - I Don't Want To Have To Marry You
TTITLE8=Charlie Louvin, Melba Montgomery - Something To Brag About
EXTD=
EXTT0=
EXTT1=
EXTT2=
EXTT3=
EXTT4=
EXTT5=
EXTT6=
EXTT7=
EXTT8=
PLAYORDER=
